<svg width="435" height="435" viewBox="0 0 435 435" fill="none" xmlns="http://www.w3.org/2000/svg">
<path d="M209.95 123.81L255.248 295.214H114.322L104.256 236.97L0 204.021L111.806 199.361L180.112 271.251L146.318 150.769L41.343 0L209.95 123.81Z" fill="#51B84F"/>
<path d="M269.628 291.886L305.579 208.68L390.837 176.028C407.393 169.687 422.437 159.949 435 147.441C415.666 153.407 395.648 156.872 375.434 157.752L291.198 161.419L248.417 208.68L269.628 291.886Z" fill="#3D803C"/>
<path d="M268.549 308.194L287.603 294.881L273.762 361.945L259.921 429.009L249.496 435H151.711L116.12 308.194H257.134L257.868 367.719L268.549 308.194Z" fill="#5E503F"/>
</svg>
